<svg height="496pt" viewBox="0 0 496 496" width="496pt" xmlns="http://www.w3.org/2000/svg"><path d="m248 32c-74.992188 0-136 61.007812-136 136s61.007812 136 136 136 136-61.007812 136-136-61.007812-136-136-136zm0 208c-39.695312 0-72-32.296875-72-72s32.304688-72 72-72 72 32.296875 72 72-32.304688 72-72 72zm56.273438-139.585938c-13.335938-11.125-30.007813-18.351562-48.273438-20.007812v-32c27.0625 1.800781 51.65625 12.554688 70.886719 29.394531zm-64.273438-20.007812c-18.265625 1.65625-34.929688 8.890625-48.273438 20.007812l-22.613281-22.613281c19.230469-16.839843 43.824219-27.601562 70.886719-29.394531zm-59.585938 31.320312c-11.125 13.335938-18.351562 30.007813-20.007812 48.273438h-32c1.800781-27.0625 12.554688-51.65625 29.394531-70.886719zm-20.007812 64.273438c1.65625 18.265625 8.890625 34.929688 20.007812 48.273438l-22.613281 22.613281c-16.839843-19.230469-27.601562-43.824219-29.394531-70.886719zm31.320312 59.585938c13.335938 11.125 30.007813 18.351562 48.273438 20.007812v32c-27.0625-1.800781-51.65625-12.554688-70.886719-29.394531zm64.273438 20.007812c18.265625-1.65625 34.929688-8.890625 48.273438-20.007812l22.613281 22.613281c-19.230469 16.839843-43.824219 27.601562-70.886719 29.394531zm59.585938-31.320312c11.125-13.335938 18.351562-30.007813 20.007812-48.273438h32c-1.800781 27.0625-12.554688 51.65625-29.394531 70.886719zm20.007812-64.273438c-1.65625-18.265625-8.890625-34.929688-20.007812-48.273438l22.613281-22.613281c16.839843 19.230469 27.601562 43.824219 29.394531 70.886719zm0 0"/><path d="m295.023438 147.71875-47.023438-47.03125-47.023438 47.03125c-5.792968 5.785156-8.976562 13.464844-8.976562 21.65625 0 16.882812 13.734375 30.625 30.632812 30.625 6.304688 0 12.296876-1.9375 17.367188-5.449219v29.449219h16v-29.449219c5.078125 3.511719 11.0625 5.449219 17.367188 5.449219 16.898437 0 30.632812-13.742188 30.632812-30.625 0-8.191406-3.183594-15.871094-8.976562-21.65625zm-21.65625 36.28125c-3.902344 0-7.582032-1.519531-10.34375-4.28125l-15.023438-15.03125-15.023438 15.03125c-2.769531 2.761719-6.441406 4.28125-10.34375 4.28125-8.074218 0-14.632812-6.558594-14.632812-14.625 0-3.847656 1.558594-7.613281 4.289062-10.34375l35.710938-35.71875 35.71875 35.71875c2.722656 2.730469 4.28125 6.488281 4.28125 10.34375 0 8.066406-6.558594 14.625-14.632812 14.625zm0 0"/><path d="m376 352h-256v48h256zm-144 16h32v16h-32zm-16 16h-32v-16h32zm64-16h32v16h-32zm-144 0h32v16h-32zm224 16h-32v-16h32zm0 0"/><path d="m406.855469 222.527344 72.105469 9.402344 17.039062.070312v-128h-16l-73.144531 9.472656c-23.0625-67.152344-87.421875-113.472656-158.855469-113.472656-92.640625 0-168 75.367188-168 168 0 67.207031 39.761719 125.160156 96.910156 152h-176.910156v105.886719l19.054688 38.113281h12.945312v32h432v-32h12.945312l19.054688-38.113281v-105.886719h-177.191406c40.519531-19.039062 73.046875-53.792969 88.046875-97.472656zm41.144531 257.472656h-400v-16h400zm-419.054688-32-8-16h454.109376l-8 16zm451.054688-112v80h-464v-80zm-232-16c-83.816406 0-152-68.183594-152-152s68.183594-152 152-152c66.6875 0 126.566406 44.640625 145.617188 108.542969l1.941406 6.527343 84.441406-11v95.859376l-84.441406-11.007813-1.941406 6.527344c-19.050782 63.910156-78.929688 108.550781-145.617188 108.550781zm0 0"/><path d="m464 131.054688-73.886719 36.945312 73.886719 36.945312zm-16 48-22.113281-11.054688 22.113281-11.054688zm0 0"/></svg>