<svg id="Layer_1" height="512" viewBox="0 0 512 512" width="512" xmlns="http://www.w3.org/2000/svg" data-name="Layer 1"><path d="m465.79 414.85a36.02 36.02 0 0 1 -50.94 50.94l-74.21-74.21 50.94-50.94z" fill="#f3e08c"/><path d="m365.39 314.45-50.94 51.15 26.18 26.4h.01l50.94-51.15z" fill="#aed7ab"/><path d="m349.7 330.14-19.56 19.56-24.81-24.82-.12-.14q5.235-4.425 10.17-9.36t9.36-10.17l.14.12z" fill="#556d8d"/><path d="m315.38 83.65a163.878 163.878 0 0 1 9.36 221.56q-4.425 5.235-9.36 10.17t-10.17 9.36a163.863 163.863 0 1 1 10.17-241.09z" fill="#495f7b"/><path d="m298.01 101.02a139.293 139.293 0 1 1 -196.99 0 139.306 139.306 0 0 1 196.99 0z" fill="#d4e1f4"/><path d="m283.08 169.94c6.92 35.84-15.31 83.35-80.32 108.98a5.435 5.435 0 0 1 -4.19 0c-65.21-26.25-87.23-73.56-80.31-108.98 4.82-23.75 21.81-39.17 43.82-39.17 12.17 0 25.59 5 38.59 14.37 13.21-9.79 26.42-14.79 38.79-14.79 22.02 0 39 15.42 43.62 39.59z" fill="#c9767f"/><path d="m131.02 101.02a138.708 138.708 0 0 1 83.495-39.977 139.284 139.284 0 1 0 0 276.944 139.28 139.28 0 0 1 -83.495-236.967z" fill="#bdc9d6"/><path d="m148.26 169.94c3.688-18.171 14.5-31.456 29.238-36.7a52.506 52.506 0 0 0 -15.418-2.471c-22.01 0-39 15.42-43.82 39.17-6.92 35.42 15.1 82.73 80.31 108.98a5.435 5.435 0 0 0 4.19 0q6.819-2.688 13.007-5.69c-55.284-26.995-73.952-70.298-67.507-103.289z" fill="#aa636d"/><g fill="#f4f8fc"><path d="m116.605 132.606a6 6 0 0 1 -4.5-9.966c1.633-1.854 3.35-3.682 5.1-5.434a6 6 0 1 1 8.484 8.486c-1.574 1.574-3.115 3.216-4.582 4.881a5.985 5.985 0 0 1 -4.502 2.033z"/><path d="m121.449 283.58a5.986 5.986 0 0 1 -4.243-1.757 116.227 116.227 0 0 1 -17.663-141.984 6 6 0 0 1 10.3 6.159 104.237 104.237 0 0 0 15.849 127.339 6 6 0 0 1 -4.243 10.243z"/></g></svg>